<svg version="1.1" xmlns="http://www.w3.org/2000/svg" xmlns:xlink="http://www.w3.org/1999/xlink" width="129.90078" height="99.64601" viewBox="0,0,129.90078,99.64601"><g transform="translate(-194.77426,-113.21216)"><g data-paper-data="{&quot;isPaintingLayer&quot;:true}" fill="#ffffff" fill-rule="nonzero" stroke="none" stroke-width="0.5" stroke-linecap="butt" stroke-linejoin="miter" stroke-miterlimit="10" stroke-dasharray="" stroke-dashoffset="0" style="mix-blend-mode: normal"><path d="M197.98438,175.43168c4.96676,-2.33479 9.10178,-10.56705 10.93605,-12.91521c0.8251,-1.05626 1.65556,-2.10957 2.49258,-3.15831c-0.39583,-2.2601 -0.72548,-4.45424 -1.1086,-6.42639c-0.58297,-3.00087 -1.60145,-9.66616 -0.04086,-12.38513c4.95012,-8.62443 15.65221,-8.09832 24.07231,-8.09832c1.56725,0 3.13661,0.00974 4.70737,0.02473c11.38144,-6.61179 24.73898,-9.79977 37.27858,-13.78352c7.13467,-2.26664 14.56205,-5.35513 22.13456,-5.47737c3.85594,0.10323 8.03067,0.07728 11.40809,1.94061c2.17648,1.20077 5.27599,1.67494 6.34411,3.91949c5.11198,10.74233 -3.56351,17.13 -11.69576,21.10166c-7.48265,3.65442 -16.33157,5.09953 -24.55356,5.95547c-1.85449,0.19306 -3.74177,-0.23758 -5.5935,-0.01969c-2.95838,0.34811 -5.86181,1.18654 -8.83729,1.32713c-7.54125,0.3563 -15.15893,0.19914 -22.74922,0.08784c-3.76029,3.22155 -13.00482,12.69046 -13.08934,12.78656c-0.5854,0.66555 -1.16223,1.35906 -1.733,2.07494c0.25845,0.86691 0.54773,1.72346 0.87904,2.56486c0.59451,0.10184 1.18029,0.26035 1.77924,0.33227c1.78766,0.21463 3.57963,0.40585 5.37669,0.51698c8.87599,0.54891 19.10819,0.97056 27.76104,-1.01958c14.22652,-4.78023 27.80965,-11.27621 43.03913,-11.17262c4.92088,0.03347 11.06187,-0.56646 15.00899,3.5682c4.68877,4.91154 2.94049,10.63366 -0.27398,15.14946c-1.39268,1.95648 -3.70095,3.00774 -5.72687,4.27557c0.85212,0.8138 1.58359,1.97188 2.05052,3.60613c2.06041,7.21143 -5.15102,9.27184 -5.15102,9.27184c-7.16708,2.0428 -13.36702,3.44279 -20.04448,6.63631c-7.33252,3.5068 -14.46155,7.4284 -21.78873,10.94634c-3.51768,1.68892 -7.05623,3.93891 -10.86921,4.8937c-4.24469,1.06289 -6.18028,0.88921 -10.27248,0.8956c-12.08294,0.01888 -24.89661,-0.46904 -35.05065,-7.60494c-4.05664,-4.22585 -9.98933,-11.18069 -7.46033,-18.02765c-3.45044,2.30358 -7.36812,3.75699 -11.99145,3.83162l-0.44809,-15.25633c0,0 1.42394,-0.47465 3.21013,-0.36226zM218.24632,175.87413c-1.10133,1.48652 -2.23253,2.93858 -3.41047,4.31878c1.62022,-0.73146 3.60019,-0.21683 5.3935,-0.29541c5.48603,-0.24038 10.45101,0.93 15.85495,1.2969c11.43659,0.77648 22.87723,0.88224 34.33422,0c5.03434,-0.38767 10.94801,0.1315 15.52204,-2.33308c4.62931,-2.64532 10.01916,-4.4754 14.01384,-8.03022c0.83271,-0.74102 1.59037,-1.56273 2.35475,-2.37681c-0.56013,-0.0008 -1.11277,0.02638 -1.654,0.0976c-7.63818,1.0051 -14.92192,4.66694 -22.03516,7.28342c-3.56109,1.30988 -7.26093,2.20881 -10.86309,3.40112c-10.2981,2.23564 -21.94626,2.28758 -32.51224,1.54524c-4.44953,-0.31262 -10.27016,-0.68455 -14.33034,-2.95027c-0.99321,-0.55425 -1.87771,-1.21297 -2.66801,-1.95727zM257.58678,196.99843c-4.98289,0.17495 -9.9743,0.16337 -14.89265,-0.20287c-5.07481,-0.37788 -10.14343,-1.3155 -15.20462,-1.84131c0.00219,0.00063 0.00439,0.00126 0.00658,0.00189c4.93785,1.42284 9.26001,2.91588 14.53423,2.8951c4.07765,-0.01607 9.86929,0.6658 14.09331,-0.38681c0.49148,-0.12248 0.97911,-0.28099 1.46314,-0.46601z"/></g></g></svg>