<svg version="1.1" xmlns="http://www.w3.org/2000/svg" xmlns:xlink="http://www.w3.org/1999/xlink" width="67.67089" height="191.0097" viewBox="0,0,67.67089,191.0097"><g transform="translate(-218.99758,-69.16111)"><g data-paper-data="{&quot;isPaintingLayer&quot;:true}" fill="#ffffff" fill-rule="nonzero" stroke="none" stroke-width="0.5" stroke-linecap="butt" stroke-linejoin="miter" stroke-miterlimit="10" stroke-dasharray="" stroke-dashoffset="0" style="mix-blend-mode: normal"><path d="M268.94559,69.37672c3.71128,0 6.9768,2.93937 8.86858,7.38898l0.60603,0.83126l0.29005,1.75889c0.40295,1.47138 0.66977,3.05281 0.77619,4.7069l0.11809,0.71611l-0.0696,0.48237c0.0024,0.14276 0.0036,0.28597 0.0036,0.42962c0,2.74008 -0.43862,5.32238 -1.21363,7.58945l-0.44808,1.38016l-0.4587,0.82419c-0.21701,0.44458 -0.44844,0.87154 -0.6932,1.27921l-0.4461,1.14506l-0.03213,0.09897l-0.02142,0.03849l-0.28697,0.73661l-0.28377,1.04888l-1.59429,2.10459l-1.36653,2.45535l-0.41246,0.26468l0.91011,0.93444l1.39902,2.37009l1.09908,1.5388l0.26452,0.16975l1.78338,3.20433l0.69555,1.17833l0.71992,1.10875l0.12704,0.3261l0.30083,0.50963l0.08785,0.48802l0.36038,0.92503l1.10818,1.99115l0.16233,0.50003l0.17526,0.31252l0.07379,0.45458l0.132,0.40659l0.13163,0.91228l0.14959,0.38397l0.04624,0.97319l0.20054,1.38984l0.59033,3.63662v0.45458l0.066,0.45741l-0.066,0.40023v9.56691l-0.41299,2.5442l-0.1306,2.61478l-0.54338,2.51057l-0.40933,0.99065l-0.1654,1.14627l-0.54338,1.67371l-0.23664,0.4252l-0.30018,1.71051l-1.64481,2.18773l1.54171,2.74928l0.59113,0.78035l0.14313,0.52905l0.24324,0.43376l0.18883,1.16327l1.2753,4.71382l-0.22821,1.73667l0.08819,0.5433v12.0395l0.38645,3.57099l1.04862,8.8824l2.68931,19.88057l-0.04341,1.68823l0.26607,1.63911v1.19835l0.066,0.40023l-0.066,0.45741v0.45458l-0.59033,3.63662l-0.1818,1.25995l0.05153,1.37186l-0.40207,1.04083l-0.12766,0.39323l-0.07379,0.45458l-0.17526,0.31252l-0.16233,0.50003l-0.33458,0.60116l-1.1843,3.06577l-1.14831,1.12541l-0.88579,1.59157l-2.13812,1.37204l-0.43373,0.42509l-1.14348,0.58702l-0.72589,0.46581l-0.11292,-0.03519l-1.27799,0.65607l-1.4234,0.16863l0.573,2.47094l-0.08025,0.98879l0.02312,0.14239v3.34742l-1.32412,8.15706l-3.14478,5.60798l-6.12405,2.54908l-6.12405,-2.54908l-0.72807,-1.29833l-1.29859,0.49999h-10.32422l-0.85893,-0.33071l-0.88254,0.10874l-3.26028,-0.83686l-0.77056,-0.51597l-0.53151,-0.06297l-0.16796,0.0657l-0.297,-0.10165h-0.29516l-2.3613,-0.90916l-2.37601,-0.81317l-0.264,-0.20329l-2.46868,-0.9505l-0.18094,-0.24066l-0.64664,-0.26916l-1.30393,-2.32526l-1.50982,-2.00818l-0.17477,-0.99588l-0.15626,-0.27866l-1.32412,-8.15706v-13.3897l0.09362,-0.57676l-0.0667,-0.58557l1.08676,-23.43197l0.56413,-2.65474l0.30601,-2.75325l5.97718,-20.9214l0.39294,-0.78058l0.36514,-2.08069l1.05781,-1.40698l-0.9036,-0.46388l-0.98814,-0.96844l-1.78612,-0.74346l-1.25379,-2.23583l-0.57791,-0.56638l-0.57633,-1.49193l-0.73676,-1.31384l-0.16613,-1.02346l-0.98077,-2.53889l0.09381,-2.49742l-0.14615,-0.54664l0.02984,-0.59753l-0.15472,-0.95312v-1.67371l0.41299,-2.5442l0.1306,-2.61478l0.54338,-2.51057l0.28651,-0.6934l0.007,-0.14727l0.14959,-0.38397l0.13163,-0.91228l0.54338,-1.67371l0.89089,-1.60072l-0.8923,-1.1779l-1.10907,-0.82459l-3.05175,-3.91666l-1.95637,-2.25975l-1.29703,-2.45852l-1.82182,-2.49889l-0.22894,-1.38833l-0.09492,-0.17991l-0.39946,-2.81802l-0.46101,-2.79564l0.03265,-0.22629l-0.19837,-1.39944l0.90385,-3.48986l0.09999,-0.69297l-0.05153,-1.37186l0.40207,-1.04083l0.53904,-1.66035l0.33458,-0.60116l1.1843,-3.06577l1.14831,-1.12541l0.88579,-1.59157l2.13812,-1.37204l0.43373,-0.42509l0.91596,-0.47022l2.58694,-1.99206l0.74429,-0.25473l0.64324,-0.63041l3.26028,-1.67371l0.41413,-0.04906l0.36649,-0.30103l1.04543,-0.40251l0.04671,-0.03597l0.42039,-0.14388l0.66099,-0.2545h0.08262l1.212,-0.4148l2.3613,-0.90916h0.29516l0.297,-0.10165l0.25987,0.10165h1.11204l1.80135,-0.39632l1.53791,-0.94741l0.31561,-0.06628l0.26873,-0.26337l3.78728,-1.94426l1.25122,-1.1562l2.72288,-3.14513l0.59579,-1.5293l2.17352,-3.34742l1.01884,-0.94146l0.21198,-0.54412c0.78179,-2.45967 1.95365,-4.57171 3.39144,-6.14496l0.20672,-0.37143l0.43804,-0.28109c0.89339,-0.83411 1.87325,-1.47055 2.914,-1.86993l1.08918,-0.69894l0.79855,0.2489c0.22544,-0.02206 0.4528,-0.03325 0.68185,-0.03325zM250.82569,223.68657l-0.28377,-1.04888l-0.28697,-0.73661l-0.02142,-0.03849l-0.03213,-0.09897l-0.48983,-1.2573l-1.10818,-1.99115l-0.24845,-0.76526l-0.72094,-1.66547l-0.22514,-0.97084l-0.0053,-0.00952l-0.42164,9.09103h4.22899zM260.91468,185.4327l0.14715,0.63455l0.29888,0.49206l0.22048,0.6112l-0.36752,-3.39604l0.07061,-1.3592l-0.21473,-1.32283v-4.01821l-1.49188,-0.91905l-0.16617,-0.18483l-0.20191,-0.05442l-3.4605,-2.36867l0.30351,1.12184l1.12701,1.48774l0.40011,1.4789l0.19205,0.34508l0.24845,0.76526z"/></g></g></svg>