<svg version="1.1" xmlns="http://www.w3.org/2000/svg" xmlns:xlink="http://www.w3.org/1999/xlink" width="23.69779" height="27.18355" viewBox="0,0,23.69779,27.18355"><g transform="translate(-230.76188,-168.15279)"><g data-paper-data="{&quot;isPaintingLayer&quot;:true}" fill="#ffffff" fill-rule="nonzero" stroke="none" stroke-width="0.5" stroke-linecap="butt" stroke-linejoin="miter" stroke-miterlimit="10" stroke-dasharray="" stroke-dashoffset="0" style="mix-blend-mode: normal"><path d="M234.61631,179.61866c-1.25649,-3.97319 -0.42888,-5.21609 0.14762,-6.13669c3.3006,-5.27069 19.69574,-5.32918 19.69574,-5.32918l-2.01246,2.90689c-3.34268,0.60776 -6.56103,1.38735 -9.75952,2.55648c-1.37712,0.50337 -3.25666,1.16978 -3.45162,2.10188c-0.11701,0.5594 -0.033,3.22571 0.32874,3.58833c1.48961,1.49321 2.88938,3.50625 4.56217,4.72884c2.17891,1.86763 1.58754,5.16786 -0.46031,7.06481c-2.789,2.58349 -10.96044,5.34914 -12.90479,3.77768c0,0 7.39417,-3.95431 8.15904,-8.25081c0.61191,-3.43725 -3.04812,-3.03504 -4.30461,-7.00823z"/></g></g></svg>