<svg version="1.1" xmlns="http://www.w3.org/2000/svg" xmlns:xlink="http://www.w3.org/1999/xlink" width="26.29724" height="59.70775" viewBox="0,0,26.29724,59.70775"><g transform="translate(-229.25389,-164.99955)"><g data-paper-data="{&quot;isPaintingLayer&quot;:true}" fill="#ffffff" fill-rule="nonzero" stroke="none" stroke-width="0.5" stroke-linecap="butt" stroke-linejoin="miter" stroke-miterlimit="10" stroke-dasharray="" stroke-dashoffset="0" style="mix-blend-mode: normal"><path d="M243.62283,224.7073l0.87324,-2.68098c3.9824,-6.96919 6.00394,-13.33773 6.00394,-21.42632c0,-2.72633 0.76616,-5.9731 -0.51873,-8.28589c-1.16979,-2.10615 -2.28685,-4.36982 -3.94159,-6.1493c-3.24644,-3.49116 -7.79773,-5.80763 -11.50783,-8.7322c-3.41762,-2.69402 -5.27797,-12.43306 -5.27797,-12.43306c7.7576,9.30912 19.12163,14.13121 25.09817,24.88635c1.568,2.82239 1.14794,6.06879 1.14794,9.21411c0,6.47313 -4.34082,16.94818 -7.85669,22.37337c-1.66689,2.57212 -4.02048,3.23392 -4.02048,3.23392z"/></g></g></svg>