<svg version="1.1" xmlns="http://www.w3.org/2000/svg" xmlns:xlink="http://www.w3.org/1999/xlink" width="93.39749" height="110.58632" viewBox="0,0,93.39749,110.58632"><g transform="translate(-199.15286,-99.10565)"><g data-paper-data="{&quot;isPaintingLayer&quot;:true}" fill="#ffffff" fill-rule="nonzero" stroke="none" stroke-width="0.5" stroke-linecap="butt" stroke-linejoin="miter" stroke-miterlimit="10" stroke-dasharray="" stroke-dashoffset="0" style="mix-blend-mode: normal"><path d="M212.23873,205.49932c-3.3541,-6.7082 3.3541,-10.06231 3.3541,-10.06231l1.60608,-0.77791c-2.51939,-1.87622 -4.6971,-4.20408 -6.30052,-7.23198c-1.77945,-3.3603 -1.31404,-6.87512 -1.23975,-10.42481c0.84765,-2.25095 1.95623,-4.71008 3.31089,-7.13628c-3.11084,-0.13771 -6.1727,-0.7031 -8.84664,-2.80707c-2.22638,-1.75181 -3.05781,-4.76994 -4.58672,-7.15491c-0.37018,-6.21215 -1.27543,-12.73206 2.24896,-18.31358c3.04871,-4.82818 9.3477,-6.87142 14.04912,-9.41752c1.05341,-0.57048 2.09896,-1.17016 3.14408,-1.77958c-0.79708,-0.4959 -1.50535,-1.10861 -2.09571,-1.8596c-3.50504,-4.45874 -1.19773,-13.63179 2.33224,-17.40592c6.33209,-6.77008 15.73112,-5.80655 23.89897,-7.38603c7.50628,-1.45155 15.0242,-4.46881 22.64107,-4.63617c0,0 7.5,0 7.5,7.5c0,2.9546 -1.16396,4.74525 -2.5748,5.83047c1.9088,0.79381 3.5932,1.55682 4.12341,1.88138c1.71051,1.04707 3.11212,2.53051 4.67179,3.79131c7.12684,5.76112 19.10046,16.65824 9.49013,26.46864c-1.71541,1.75112 -4.75725,1.21787 -7.18041,1.58846c-5.97036,0.91308 -11.92589,-1.22971 -17.70825,-2.29125c-5.1634,-2.54504 -10.90344,-4.06088 -16.55079,-4.8182c-3.02106,-0.40513 -6.06534,-1.92787 -9.20701,-1.36154c-5.72473,1.03195 -10.10253,4.78804 -14.97696,7.46394c-2.28328,1.25345 -4.65228,2.35862 -6.86415,3.73416c-0.6711,0.41735 -1.82299,0.24485 -2.17011,0.95483c-0.71714,1.46677 0.21059,3.39113 -0.03592,5.11226c1.34304,-0.06879 2.68909,-0.06237 4.0339,-0.06961c1.96011,-0.01054 3.92314,0.12531 5.88038,0.01887c4.21779,-0.22937 7.89229,-1.86146 11.85987,-2.91397c2.00703,-0.53242 4.11796,-0.61911 6.11513,-1.18738c3.56712,-1.01499 7.09866,-2.87421 10.85073,-3.51513c3.0378,-0.51892 7.05538,-0.14322 10.17824,-0.09684c5.37416,0.07981 10.57526,0.66114 14.97436,4.23232c1.06253,0.86256 1.54673,2.29143 2.56482,3.20603c1.09658,0.9851 2.87348,1.20142 3.70005,2.42195c2.56145,3.78227 2.22907,5.99245 2.29089,9.8226c-0.12829,1.64551 0.16802,3.38139 -0.38488,4.93653c-0.6243,1.75599 -1.96794,3.16778 -3.03874,4.69311c-2.07764,2.95956 -4.40724,5.92765 -8.11673,7.10356c-2.38669,0.75658 -4.99821,0.33022 -7.50135,0.38488c-7.77188,0.1697 -14.05133,-3.00095 -20.70619,-6.58257c-4.76395,-2.56393 -7.52635,-4.14021 -12.57465,-6.03032c-0.97634,-0.36555 -2.25932,-0.16764 -2.99268,-0.90861c-0.00068,-0.00069 -0.00133,-0.00139 -0.00195,-0.00211c-2.45873,3.09411 -5.26621,5.8172 -7.01506,9.36553c0.88069,3.63123 5.58408,5.06699 8.81266,6.33692c1.91169,0.75195 3.75126,1.76042 5.75953,2.19264c4.38709,0.94418 9.63934,-1.05109 13.99322,-1.39218c1.45156,-0.11372 2.91702,0.13169 4.36801,0.01095c4.17021,-0.34702 10.5272,-2.01076 14.64508,-0.47707c6.14565,2.28893 11.1574,5.90501 8.29673,14.28052c-1.94171,5.68497 -10.43848,6.23764 -15.14951,6.28969c-6.13061,0 -12.60241,0.62525 -18.69278,-0.0365c-5.80098,-0.63031 -11.88406,-2.58054 -17.75862,-0.88211c-1.95337,0.56475 -3.7596,1.55062 -5.64754,2.3058l-0.71374,0.38583c0,0 -6.7082,3.3541 -10.06231,-3.3541zM258.53784,125.85108c3.54868,0.91872 7.02815,2.15966 10.1776,3.75885c0.53665,0.07566 1.06651,0.16763 1.59189,0.26865c-2.09594,-1.62305 -4.19593,-2.9253 -6.78135,-4.16092c-0.3799,-0.18156 -0.60218,-0.70592 -1.02161,-0.74292c-1.35276,-0.11934 -2.64919,0.44981 -3.96654,0.87635zM252.47843,162.9649c1.46815,0.78502 2.93363,1.57714 4.4263,2.32483c2.14405,1.07398 4.91097,3.46882 7.48672,3.80413c1.08699,0.14151 2.19215,-0.14901 3.28707,-0.09684c0.82562,0.03934 1.63647,0.23029 2.45537,0.34601c-0.04875,-0.01755 -0.07873,-0.04131 -0.06421,-0.07293c0.33521,-0.73006 2.13521,-2.14797 1.65053,-2.39116c0.00363,-0.10647 -0.01098,-0.22536 -0.03323,-0.34946c-0.15064,-0.06497 -0.28785,-0.14623 -0.38788,-0.23009c-1.04875,-0.87927 -1.596,-2.23939 -2.56482,-3.20603c-1.29485,-1.29193 -4.09173,-0.92863 -5.5442,-0.89732c-2.3002,0.0496 -5.5109,-0.5522 -7.7755,-0.09684c-1.00033,0.20114 -1.97485,0.51195 -2.93615,0.8657z"/></g></g></svg>