<svg version="1.1" xmlns="http://www.w3.org/2000/svg" xmlns:xlink="http://www.w3.org/1999/xlink" width="349.02736" height="54.66667" viewBox="0,0,349.02736,54.66667"><g transform="translate(-222.98159,-107.83333)"><g data-paper-data="{&quot;isPaintingLayer&quot;:true}" fill="#000000" fill-rule="nonzero" stroke="none" stroke-width="0" stroke-linecap="butt" stroke-linejoin="miter" stroke-miterlimit="10" stroke-dasharray="" stroke-dashoffset="0" style="mix-blend-mode: normal"><path d="M437,140c0.46078,14.1913 -17,22.5 -17,22.5c0,0 -16.55132,-11.50367 -17,-22.5c-0.66667,-16.33882 17,-32.16667 17,-32.16667c0,0 16.33333,11.63455 17,32.16667z"/><path d="M392,140c0.46078,14.19131 -17,22.5 -17,22.5c0,0 -16.55132,-11.50367 -17,-22.5c-0.66667,-16.33881 17,-32.16666 17,-32.16666c0,0 16.33333,11.63455 17,32.16666z"/><path d="M347,140c0.46078,14.19131 -17,22.5 -17,22.5c0,0 -16.55132,-11.50367 -17,-22.5c-0.66667,-16.33881 17,-32.16666 17,-32.16666c0,0 16.33333,11.63455 17,32.16666z"/><path d="M302,140c0.46078,14.19131 -17,22.5 -17,22.5c0,0 -16.55132,-11.50367 -17,-22.5c-0.66667,-16.33881 17,-32.16666 17,-32.16666c0,0 16.33333,11.63455 17,32.16666z"/><path d="M257,140c0.46078,14.19131 -17,22.5 -17,22.5c0,0 -16.55132,-11.50367 -17,-22.5c-0.66666,-16.33881 17,-32.16666 17,-32.16666c0,0 16.33333,11.63455 17,32.16666z"/><path d="M572,140c0.46078,14.1913 -17,22.5 -17,22.5c0,0 -16.55132,-11.50367 -17,-22.5c-0.66667,-16.33882 17,-32.16667 17,-32.16667c0,0 16.33333,11.63455 17,32.16667z"/><path d="M527,140c0.46078,14.19131 -17,22.5 -17,22.5c0,0 -16.55132,-11.50367 -17,-22.5c-0.66667,-16.33881 17,-32.16666 17,-32.16666c0,0 16.33333,11.63455 17,32.16666z"/><path d="M482,140c0.46078,14.19131 -17,22.5 -17,22.5c0,0 -16.55132,-11.50367 -17,-22.5c-0.66667,-16.33881 17,-32.16666 17,-32.16666c0,0 16.33333,11.63455 17,32.16666z"/></g></g></svg>