<svg version="1.1" xmlns="http://www.w3.org/2000/svg" xmlns:xlink="http://www.w3.org/1999/xlink" width="104.21955" height="191.00972" viewBox="0,0,104.21955,191.00972"><g transform="translate(-195.27301,-71.08468)"><g data-paper-data="{&quot;isPaintingLayer&quot;:true}" fill="#ffffff" fill-rule="nonzero" stroke="none" stroke-width="0.5" stroke-linecap="butt" stroke-linejoin="miter" stroke-miterlimit="10" stroke-dasharray="" stroke-dashoffset="0" style="mix-blend-mode: normal"><path d="M272.19766,71.30033c5.71573,0 10.74493,2.93937 13.65845,7.38898l0.93335,0.83126l0.4467,1.75889c0.62058,1.47138 1.03151,3.05281 1.1954,4.7069l0.18187,0.71611l-0.10719,0.48237c0.00369,0.14276 0.00555,0.28597 0.00555,0.42962c0,2.74008 -0.67552,5.32238 -1.8691,7.58945l-0.69008,1.38016l-0.70644,0.82419c-0.33422,0.44458 -0.69064,0.87154 -1.0676,1.27921l-0.68704,1.14506l-0.04949,0.09897l-0.03299,0.03849l-0.44196,0.73661l-0.43703,1.04888l-2.45535,2.10459l-2.10459,2.45535l-0.63523,0.26468l1.40166,0.93444l2.15463,2.37009l1.69268,1.5388l0.40739,0.16975l2.74657,3.20433l1.07121,1.17833l1.10875,1.10875l0.19566,0.3261l0.4633,0.50963l0.13529,0.48802l0.55502,0.92503l1.7067,1.99115l0.25001,0.50003l0.26991,0.31252l0.11364,0.45458l0.20329,0.40659l0.20273,0.91228l0.23038,0.38397l0.07121,0.97319l0.30885,1.38984l0.90916,3.63662v0.45458l0.10165,0.45741l-0.10165,0.40023v9.56691l-0.63605,2.5442l-0.20114,2.61478l-0.83686,2.51057l-0.63041,0.99065l-0.25473,1.14627l-0.83686,1.67371l-0.36445,0.4252l-0.4623,1.71051l-2.53316,2.18773l2.37438,2.74928l0.9104,0.78035l0.22044,0.52905l0.37461,0.43376l0.29082,1.16327l1.96409,4.71382l-0.35147,1.73667l0.13582,0.5433v12.0395l0.59517,3.57099l1.61498,8.8824l4.14179,19.88057l-0.06686,1.68823l0.40978,1.63911v1.19835l0.10165,0.40023l-0.10165,0.45741v0.45458l-0.90916,3.63662l-0.27999,1.25995l0.07936,1.37186l-0.61923,1.04083l-0.19661,0.39323l-0.11364,0.45458l-0.26991,0.31252l-0.25001,0.50003l-0.51528,0.60116l-1.82394,3.06577l-1.7685,1.12541l-1.3642,1.59157l-3.2929,1.37204l-0.66799,0.42509l-1.76107,0.58702l-1.11794,0.46581l-0.1739,-0.03519l-1.96822,0.65607l-2.19217,0.16863l0.88248,2.47094l-0.1236,0.98879l0.0356,0.14239v3.34742l-2.03927,8.15706l-4.84326,5.60798l-9.43161,2.54908l-9.43161,-2.54908l-1.12129,-1.29833l-1.99995,0.49999h-15.90027l-1.32283,-0.33071l-1.3592,0.10874l-5.02114,-0.83686l-1.18673,-0.51597l-0.81857,-0.06297l-0.25868,0.0657l-0.45741,-0.10165h-0.45458l-3.63662,-0.90916l-3.65928,-0.81317l-0.40659,-0.20329l-3.802,-0.9505l-0.27866,-0.24066l-0.99588,-0.26916l-2.00818,-2.32526l-2.32526,-2.00818l-0.26916,-0.99588l-0.24066,-0.27866l-2.03927,-8.15706v-13.3897l0.14419,-0.57676l-0.10273,-0.58557l1.67371,-23.43197l0.86882,-2.65474l0.47128,-2.75325l9.20542,-20.9214l0.60517,-0.78058l0.56235,-2.08069l1.62913,-1.40698l-1.39163,-0.46388l-1.52183,-0.96844l-2.7508,-0.74346l-1.93095,-2.23583l-0.89003,-0.56638l-0.8876,-1.49193l-1.13468,-1.31384l-0.25586,-1.02346l-1.51048,-2.53889l0.14448,-2.49742l-0.22509,-0.54664l0.04596,-0.59753l-0.23828,-0.95312v-1.67371l0.63605,-2.5442l0.20114,-2.61478l0.83686,-2.51057l0.44125,-0.6934l0.01078,-0.14727l0.23038,-0.38397l0.20273,-0.91228l0.83686,-1.67371l1.37205,-1.60072l-1.37422,-1.1779l-1.70807,-0.82459l-4.69999,-3.91666l-3.013,-2.25975l-1.99755,-2.45852l-2.80578,-2.49889l-0.35259,-1.38833l-0.14618,-0.17991l-0.6152,-2.81802l-0.71,-2.79564l0.05029,-0.22629l-0.30551,-1.39944l1.39202,-3.48986l0.15399,-0.69297l-0.07936,-1.37186l0.61923,-1.04083l0.83018,-1.66035l0.51528,-0.60116l1.82394,-3.06577l1.7685,-1.12541l1.3642,-1.59157l3.2929,-1.37204l0.66799,-0.42509l1.41066,-0.47022l3.98413,-1.99206l1.14627,-0.25473l0.99065,-0.63041l5.02114,-1.67371l0.6378,-0.04906l0.56443,-0.30103l1.61006,-0.40251l0.07194,-0.03597l0.64744,-0.14388l1.01799,-0.2545l0.12725,0l1.8666,-0.4148l3.63662,-0.90916h0.45458l0.45741,-0.10165l0.40023,0.10165h1.71265l2.77425,-0.39632l2.36852,-0.94741l0.48607,-0.06628l0.41387,-0.26337l5.83277,-1.94426l1.92699,-1.1562l4.1935,-3.14513l0.91758,-1.5293l3.34742,-3.34742l1.56911,-0.94146l0.32647,-0.54412c1.20403,-2.45967 3.0088,-4.57171 5.22314,-6.14496l0.31837,-0.37143l0.67462,-0.28109c1.37591,-0.83411 2.88499,-1.47055 4.48784,-1.86993l1.67744,-0.69894l1.22985,0.2489c0.3472,-0.02206 0.69735,-0.03325 1.05012,-0.03325zM244.29129,225.61018l-0.43703,-1.04888l-0.44196,-0.73661l-0.03299,-0.03849l-0.04949,-0.09897l-0.75438,-1.2573l-1.7067,-1.99115l-0.38263,-0.76526l-1.11031,-1.66547l-0.34673,-0.97084l-0.00816,-0.00952l-0.64936,9.09103h6.51304zM259.82929,187.35631l0.22662,0.63455l0.46031,0.49206l0.33956,0.6112l-0.56601,-3.39604l0.10874,-1.3592l-0.33071,-1.32283l0,-4.01821l-2.29763,-0.91905l-0.25592,-0.18483l-0.31096,-0.05442l-5.3295,-2.36867l0.46743,1.12184l1.7357,1.48774l0.61621,1.4789l0.29578,0.34508l0.38263,0.76526z"/></g></g></svg>