<svg version="1.1" xmlns="http://www.w3.org/2000/svg" xmlns:xlink="http://www.w3.org/1999/xlink" width="161.03689" height="94.86203" viewBox="0,0,161.03689,94.86203"><g transform="translate(-162.65475,-140.2502)"><g data-paper-data="{&quot;isPaintingLayer&quot;:true}" fill="#ffffff" fill-rule="nonzero" stroke="none" stroke-width="0.5" stroke-linecap="butt" stroke-linejoin="miter" stroke-miterlimit="10" stroke-dasharray="" stroke-dashoffset="0" style="mix-blend-mode: normal"><path d="M323.66912,223.57224c-0.06999,3.4993 -3.4993,3.43001 -3.4993,3.43001h-1.25c-6.29901,0 -12.59535,0.13112 -18.87904,-0.16303c0.07058,0.21268 0.11625,0.43286 0.12904,0.66303c0.06719,1.20939 -1.23212,2.08663 -1.80286,3.155c-3.93158,7.35962 -7.13585,3.56636 -12.9261,2.76858c-0.22148,-0.03052 -2.18933,-0.0772 -4.33196,-0.23745c-3.66241,2.24079 -14.28457,-0.30594 -18.11147,-0.75486c-11.38791,-1.33588 -22.57442,-3.03525 -33.88724,-5.05364c-6.98644,-1.2465 -13.86939,-4.48275 -20.84197,-6.16738c-3.34802,-0.8089 -9.21586,-1.27615 -13.54386,-2.72537c-0.18357,0.01003 -0.36846,0.01512 -0.55454,0.01512c-0.62514,0.48401 -1.76386,0.19458 -3.09463,-0.48804c-1.81826,-0.59115 -3.40789,-1.68914 -4.60216,-3.12723c-1.84097,-1.46359 -3.39783,-2.89164 -3.88826,-3.35896c-0.344,-0.32779 -0.43855,-1.22444 -0.89882,-1.10641c-1.2577,0.32252 -6.31253,-1.09555 -7.73597,-1.90895c-1.2112,-0.69212 -1.95694,-4.52697 -2.96117,-4.93066c-1.05809,-0.42535 -2.37897,-0.18413 -3.31899,-0.82975c-0.7552,-0.51868 -0.71581,-1.73854 -1.36364,-2.38636c-0.64783,-0.64783 -1.93182,-0.56818 -2.38636,-1.36364c-1.68676,-2.95183 -1.68676,-8.04817 0,-11c0.45455,-0.79545 1.73854,-0.71581 2.38636,-1.36364c0.64783,-0.64783 0.56818,-1.93182 1.36364,-2.38636c2.09195,-1.1954 5.19107,-1.00781 7.50963,-1.78852c0.4937,-0.16624 0.34527,-2.17127 0.74037,-2.96148c0.80304,-1.60608 2.25256,-3.17902 3.65983,-4.38525c1.51547,-1.29897 4.06904,-2.11363 6.97559,-2.51551c0.44116,-0.98715 1.05834,-2.04292 1.87577,-3.17703c1.39094,-1.92983 3.27407,-3.33093 5.79775,-4.31608c2.50768,-0.97891 4.8578,-2.56777 7.5251,-2.93149l0.25368,-0.16146c17.36971,-5.7899 38.65343,-20.0724 58.38727,-17.74462c0.05421,-0.03892 0.10978,-0.07659 0.16676,-0.11294c0.30828,-0.19667 0.67145,-0.3681 1.07659,-0.51763c0.7999,-0.35392 1.67329,-0.57208 2.59094,-0.62525c3.37136,-0.52337 7.51635,-0.37591 8.83281,-0.49053c4.58993,-0.39961 9.16411,-0.96367 13.74321,-1.47249c2.85197,-0.3169 9.88874,-1.83818 12.1147,0.38778c0.65001,0.65001 1.21552,1.26833 1.69652,1.8632c1.12885,-0.48044 2.31273,-0.21736 2.31273,-0.21736c5.58804,1.24179 11.27132,1.85346 16.92715,2.98462l0.98164,0.49638c0,0 3.43565,0.66804 2.76761,4.1037c-0.66804,3.43565 -4.1037,2.76761 -4.1037,2.76761l-1.01836,-0.50362c-5.41796,-1.08359 -10.8683,-1.69871 -16.2491,-2.83681c-0.56163,1.37491 -1.66646,2.81924 -3.31449,4.46727c-1.32407,1.32407 -5.13471,0.82658 -6.78307,0.9375c-5.80009,0.39029 -12.54466,1.49785 -17.86289,1.93019c-1.66348,0.13523 -3.32927,0.23916 -4.99574,0.33266c-0.07546,0.13816 -0.14701,0.27826 -0.21332,0.42094c-1.03507,2.22695 -0.84242,4.17379 -2.89498,5.06621c-1.26467,0.54986 -4.585,0.73706 -5.56895,1.48276c-0.35546,0.26939 0.86364,0.22355 1.29807,0.32452c1.2622,0.29334 3.34877,0.6898 4.36105,1.55746c0.46621,0.39961 0.92174,0.83204 1.35609,1.29382c5.76667,-1.54554 16.00631,-1.37951 19.68789,3.4167c4.3328,0.45631 8.75657,0.17474 13.11585,0.17474h1.25c0,0 3.60138,0.10441 3.49849,3.6029c-0.1029,3.49849 -3.49849,3.3971 -3.49849,3.3971h-1.25c-4.06881,0 -8.1784,0.19466 -12.23999,-0.08201c-2.62113,6.92061 -15.03381,4.82873 -19.51001,4.58201c-0.18135,0 -0.36119,-0.00644 -0.53931,-0.01909c-0.09052,-0.00215 -0.18226,-0.00412 -0.27479,-0.00631c-1.69273,1.04488 -3.74065,1.94769 -2.48251,2.10406c6.91407,0.85931 13.76057,-0.66295 20.29662,1.67135c1.017,0.36321 2.69096,1.91312 3.93298,3.25626c1.95799,-0.45879 4.69039,-0.15493 9.19399,0.67233c2.96009,0.54374 7.27761,1.64315 9.73632,4.00945c3.53414,0.66771 7.11216,1.81195 10.6367,1.81195l1.5322,0.0407c0,0 3.4593,0.5322 2.9271,3.9915c-0.5322,3.4593 -3.9915,2.9271 -3.9915,2.9271l-0.4678,0.0407c-3.18799,0 -6.30444,-0.75728 -9.43127,-1.43104c-0.10684,0.25608 -0.22683,0.51775 -0.36053,0.78514c-1.12673,2.25347 -3.89878,3.39591 -6.28894,4.19263c-0.37776,0.12592 -5.89478,-1.48804 -6.74255,-1.54673c-2.05399,-0.1422 -4.12628,0.1866 -6.17671,0c-0.27276,0 -0.54212,-0.01456 -0.80734,-0.04295c-0.78623,-0.02718 -1.63137,-0.05053 -2.26119,-0.34163c-0.55616,0.39376 -1.07453,0.70401 -1.45932,0.82884c-13.86887,4.49935 -29.68551,1.5214 -43.87145,3.19554c-0.0776,0.00916 0.13868,0.07882 0.21575,0.09162c2.26836,0.37684 4.48539,1.03587 6.75907,1.37917c3.32096,0.50142 8.47026,0.97169 12.29966,1.48066c4.44217,0.59041 9.00946,1.55153 13.45245,1.90874c2.27014,0.18252 5.31374,-0.60864 7.17237,1.25c0.99278,0.99278 1.83773,1.93013 2.53482,2.82854c3.45668,0.21634 7.12316,0.8205 9.65955,1.65469c0.85044,-0.28905 1.6225,-0.21887 1.6225,-0.21887c7.79142,0.70831 15.61161,0.48563 23.43312,0.48563h1.25c0,0 3.56929,0.07069 3.4993,3.56999z"/></g></g></svg>