<svg version="1.1" xmlns="http://www.w3.org/2000/svg" xmlns:xlink="http://www.w3.org/1999/xlink" width="242.50122" height="35.48118" viewBox="0,0,242.50122,35.48118"><g transform="translate(-117.05848,-215.142)"><g data-paper-data="{&quot;isPaintingLayer&quot;:true}" fill="#ffffff" fill-rule="nonzero" stroke="#ffffff" stroke-width="0.5" stroke-linecap="butt" stroke-linejoin="miter" stroke-miterlimit="10" stroke-dasharray="" stroke-dashoffset="0" style="mix-blend-mode: normal"><path d="M141.5,249l-23,-14c0,0 31.15217,7.09629 58.80837,9.19358c21.51877,1.63186 45.15891,-1.60415 61.19394,-1.67573c18.79061,-0.08388 46.1618,2.49645 69.02151,0.40986c23.33951,-2.13039 50.97618,-8.92771 50.97618,-8.92771l-19,15c0,0 -20.96735,0 -38,0c-12.94401,0 -38.24635,1.5768 -64.97763,1.35107c-18.53284,-0.1565 -37.75252,-2.21809 -54.01686,-1.97792c-23.61896,0.34877 -41.00551,0.62685 -41.00551,0.62685z"/><path d="M241,225c0,11.32184 -0.44772,20.5 -1,20.5c-0.55228,0 -1,-9.17816 -1,-20.5c0,-11.32184 0.44772,-9.5 1,-9.5c0.55228,0 1,-1.82184 1,9.5z"/><path d="M243,236c0,7.45584 -5.8203,13.5 -13,13.5c-2.88357,0 -10.01835,-5.1818 -13.93416,-11.3831c-5.83406,-9.23913 -15.18209,-20.74126 -15.18209,-20.74126c0,0 19.14441,11.13464 29.54003,16.76507c4.93619,2.67352 12.57622,-0.54118 12.57622,1.85929z"/><path d="M249,249.5c-7.73199,0 -14,-6.04415 -14,-13.5c0,-3.3177 7.26803,0.83765 15.33583,-2.40806c10.06293,-4.04835 27.37012,-15.16491 27.37012,-15.16491c0,0 -5.34845,9.02363 -10.56871,17.34541c-4.46682,7.12071 -14.57194,13.72756 -18.13724,13.72756z"/></g></g></svg>