<svg version="1.1" xmlns="http://www.w3.org/2000/svg" xmlns:xlink="http://www.w3.org/1999/xlink" width="135.10917" height="158.80239" viewBox="0,0,135.10917,158.80239"><g transform="translate(-172.23832,-82.26188)"><g data-paper-data="{&quot;isPaintingLayer&quot;:true}" fill="#ffffff" fill-rule="nonzero" stroke="none" stroke-width="0.5" stroke-linecap="butt" stroke-linejoin="miter" stroke-miterlimit="10" stroke-dasharray="" stroke-dashoffset="0" style="mix-blend-mode: normal"><path d="M225.73725,226.08312c1.52261,0.1198 7.12174,1.00091 7.12174,7.48115c0,7.5 -7.5,7.5 -7.5,7.5l-2.46022,-0.22393c-2.73785,-0.68995 -5.06918,-1.81734 -7.89689,-1.73618c-4.72445,-0.90023 -9.8243,-1.3781 -14.39259,-2.89212c-8.6246,-2.85836 -16.51595,-8.21763 -22.4668,-14.90277c-1.37451,-1.54411 -3.15665,-2.78038 -4.19436,-4.56832c-2.57633,-4.43893 -1.69956,-9.9567 -0.85061,-14.66543c0.39048,-2.16581 0.12672,-4.4357 0.67149,-6.56794c1.57321,-6.15759 5.86826,-13.83854 11.29717,-17.40042c1.61452,-1.05928 3.48467,-1.66497 5.227,-2.49746c3.84973,-0.11271 8.742,-0.60624 12.72146,-0.16413c12.75416,1.41695 25.20719,6.63669 36.88393,11.4892c2.74905,1.14243 5.34986,2.67168 8.19243,3.55608c1.89856,0.59069 3.93581,0.66923 5.82197,1.2984c4.61547,1.5396 9.20673,4.13773 13.90145,5.55612c1.08941,0.32914 3.65087,-0.72384 4.7623,-0.87697c4.8197,-3.19022 9.1216,-6.37796 13.32347,-10.31954c0.74309,-0.69705 1.61614,-1.25422 2.31601,-1.99466c0.10701,-0.11321 -0.44965,0.19221 -0.46586,0.03728c-0.22954,-2.19321 0.50096,-4.42788 0.20063,-6.61252c-0.71732,-5.21801 -5.83184,-6.39647 -9.38345,-8.75726c-2.56449,-1.70464 -6.44168,-1.64435 -9.67629,-2.26011c-7.50865,-1.42939 -14.72688,-1.15952 -22.37248,-1.15952c-1.40127,0 -7.92142,0.00746 -8.43349,-0.0365c-3.41576,-0.29325 -6.71763,-1.61565 -10.13885,-1.91267c-5.53426,-0.48047 -11.71664,-1.118 -16.27937,-4.84797c-2.28297,-1.8663 -4.78704,-5.35705 -7.00027,-7.58245c-3.55559,-3.57515 -6.78527,-7.02978 -7.83222,-12.22066c-1.02567,-5.08536 1.47454,-9.37482 2.65342,-14.13781c0,0 1.77454,-7.09815 8.82903,-5.52008c0.73308,-0.49725 1.4834,-0.96428 2.277,-1.35655c3.95937,-1.95703 8.90503,-3.0247 13.23776,-3.77685c5.84009,-1.36483 11.40293,-0.67897 17.19131,-0.10095c5.36186,0.53543 10.8237,0.82553 16.22099,1.24071c4.76862,0.36682 9.4983,0.46599 14.28169,0.62671c0.13735,0.00461 0.29289,-0.01037 0.45602,-0.03267c2.94059,-4.45988 6.36771,-8.58242 9.50664,-12.90607c4.12339,-5.67968 8.07764,-11.48025 12.11682,-17.22013c0,0 4.3162,-6.13355 10.44975,-1.81735c6.13355,4.3162 1.81735,10.44975 1.81735,10.44975c-4.08276,5.80181 -7.99917,11.72435 -12.24898,17.40494c-2.70425,3.6147 -5.78778,6.95544 -8.25769,10.73414c-0.81958,1.25387 -0.45776,3.17433 -1.5223,4.22821c-1.85309,1.83454 -4.27669,3.12433 -6.74723,3.95853c-1.76035,0.5944 -3.7128,0.16106 -5.57038,0.20063c-4.16063,0.08864 -7.86261,-0.33684 -12.00772,-0.6557c-6.7625,-0.52019 -13.58982,-0.64946 -20.3277,-1.32411c-4.15025,-0.41556 -8.07266,-1.27091 -12.30412,-0.10095c-3.19833,0.50552 -7.01893,1.18574 -9.84563,2.6352c-1.84442,0.94577 -3.36061,2.43568 -5.13542,3.5064l-0.47519,0.11287c-0.05282,0.34166 -0.02204,0.68015 0.13392,1.0145c1.20317,2.57944 3.66009,4.39353 5.63309,6.37429c1.41879,1.42436 2.52213,3.13667 3.90022,4.60045c1.61134,1.71154 6.03698,1.37035 8.08642,1.56408c3.48712,0.32962 6.91403,1.6586 10.37971,1.93456c2.31119,0.18403 4.63692,-0.0365 6.95543,-0.0365c5.79026,0 12.2976,-0.65989 18.05157,0.0365c4.34771,0.52619 8.67358,2.00056 13.00144,2.58451c1.208,0.16299 2.49533,-0.17331 3.65045,0.21594c1.98586,0.66921 5.87758,3.29052 8.01912,4.50055c1.66581,0.94122 3.56701,1.52347 5.04377,2.74002c5.54528,4.56822 8.32936,12.41087 8.46524,19.22345c0.02945,1.4765 0.10031,8.47839 -0.46586,9.65535c-1.22901,2.55487 -6.43243,8.4024 -9.12387,10.71495c-6.028,5.1794 -7.88351,5.90741 -14.99136,10.31352c-4.40286,1.0098 -8.58059,2.47144 -13.19144,1.68785c-5.18055,-0.88041 -10.75248,-4.37298 -15.59398,-5.98557c-1.85268,-0.61709 -3.85981,-0.67148 -5.71972,-1.26642c-7.47308,-2.39043 -15.03208,-6.02647 -22.08025,-9.32896c-1.39751,-0.65482 -6.94269,-1.92333 -7.66196,-2.1026c-4.0434,-1.00775 -8.22753,-2.55651 -12.38532,-3.01859c-2.51227,-0.27921 -5.26424,-0.01495 -7.7971,-0.16413c0.32239,0.22305 -0.41882,0.66609 -0.67341,0.9642c-1.19997,1.40507 -2.4241,2.84391 -3.22277,4.51012c-2.05797,4.2934 -1.58287,9.21171 -2.56605,13.88176c-0.00071,0.00337 -0.0017,0.00629 -0.00294,0.00878c0.66149,0.52635 1.36554,1.00692 1.94453,1.62091c1.54467,1.63801 3.10566,3.31824 4.98616,4.55629c3.64401,2.39907 6.83977,4.78211 11.01934,6.18915c3.55294,1.19609 7.58012,1.44712 11.25561,2.23752c3.30927,0.06597 6.12974,1.07834 9.2573,1.90597z"/></g></g></svg>