<svg version="1.1" xmlns="http://www.w3.org/2000/svg" xmlns:xlink="http://www.w3.org/1999/xlink" width="23.85776" height="19.91468" viewBox="0,0,23.85776,19.91468"><g transform="translate(-220.82388,-164.85198)"><g data-paper-data="{&quot;isPaintingLayer&quot;:true}" fill="#ffffff" fill-rule="nonzero" stroke="none" stroke-width="0.5" stroke-linecap="butt" stroke-linejoin="miter" stroke-miterlimit="10" stroke-dasharray="" stroke-dashoffset="0" style="mix-blend-mode: normal"><path d="M228.39014,165.54031c0.39202,0.11852 0.70041,0.28184 0.94204,0.47211l-0.24761,-0.90001c0.55556,-0.05556 1.11111,-0.11111 1.66667,-0.16667c2.07168,-0.15483 4.00188,-0.17989 6.03346,0.41819c5.62088,1.65474 10.80065,8.65578 6.00587,13.94111c-1.06548,1.17448 -3.00878,1.00293 -4.51317,1.50439c-3.35985,1.11995 -6.5996,2.21846 -9.95729,3.03133l0.03344,0.23411l-2.35355,0.33622v0.35557h-2.66667c-0.19045,0 -0.37593,-0.0213 -0.55419,-0.06164c-0.73139,-0.13652 -1.67504,-0.59223 -1.90852,-2.00574c-0.00802,-0.04599 -0.01479,-0.0924 -0.02026,-0.13922c-0.18118,-1.43669 0.60293,-2.14316 1.27026,-2.4801c0.27126,-0.15076 0.57351,-0.25251 0.89478,-0.29328c5.68208,-0.81562 16.21679,-2.10301 16.66367,-4.76878c1.11966,-6.67917 -14.40543,-7.80804 -14.40543,-7.80804c0,0 0.72347,-2.39303 3.1165,-1.66955z"/></g></g></svg>