<svg version="1.1" xmlns="http://www.w3.org/2000/svg" xmlns:xlink="http://www.w3.org/1999/xlink" width="90.39502" height="154.49704" viewBox="0,0,90.39502,154.49704"><g transform="translate(-186.2958,-82.91144)"><g data-paper-data="{&quot;isPaintingLayer&quot;:true}" fill-rule="nonzero" stroke-linecap="butt" stroke-linejoin="miter" stroke-miterlimit="10" stroke-dasharray="" stroke-dashoffset="0" style="mix-blend-mode: normal"><path d="M209.5466,235.57684c-21.18282,-6.1643 -28.52898,-44.92676 -16.40816,-86.57835c12.12084,-41.65159 39.11877,-70.4197 60.30157,-64.2554c21.1828,6.16432 28.529,44.92676 16.40816,86.57835c-12.12084,41.65159 -39.11876,70.4197 -60.30157,64.2554z" data-paper-data="{&quot;origRot&quot;:0}" fill="#ececec" stroke="#aaaaaa" stroke-width="2"/><path d="M231.88069,197.38217c-1.76459,3.5292 -5.29379,1.76459 -5.29379,1.76459l-1.70222,0.33994c-10.182,-2.03639 -20.05824,-7.98166 -28.563,-14.32529l-0.05789,0.07237l-0.84105,-0.67283l-0.38178,0.38179l-3.59064,-3.59064l0.00748,-0.0075c-0.71761,-0.7448 -2.25488,-2.80204 -0.29852,-5.24748c2.4649,-3.08112 5.54602,-0.61622 5.54602,-0.61622c8.48875,6.791 18.90472,14.10308 29.72704,16.26753l3.68375,0.33994c0,0 3.5292,1.76459 1.76459,5.29379z" fill="#ececec" stroke="none" stroke-width="0.5"/><path d="M237.85074,220.34573c-1.55749,2.19023 -3.54594,1.8278 -4.65573,1.37396l0.54245,0.28514c-2.39375,0 -4.78753,0 -7.18128,0c-4.87147,0 -10.76837,0.82717 -15.35733,-1.15568c-3.38504,-1.46266 -4.21309,-5.72135 -5.75249,-8.50157c-4.01503,-7.25122 -8.09951,-14.32704 -13.99602,-20.22357c0,0 -2.79006,-2.79008 0,-5.58016c2.79006,-2.79006 5.58014,0 5.58014,0c6.20035,6.20035 10.51005,13.49054 14.7291,21.06881c1.55147,2.78676 1.92187,6.07052 5.01943,7.65634c0.37923,0.19416 -0.89813,-0.916 -0.54592,-1.1557c1.65435,-1.12582 8.25635,0 10.32309,0c2.39375,0 4.78753,0 7.18128,0l3.18432,0.73014c0,0 3.21562,2.28665 0.92896,5.50227z" fill="#ffffff" stroke="none" stroke-width="0.5"/><path d="M203.29235,153.43073c1.79212,-3.51529 7.17884,0.32669 7.17884,0.32669l0.89766,2.24416c-2.50461,0.45119 0.96965,1.37983 1.83249,1.68998c4.06993,1.46298 8.48921,2.39224 12.64351,3.6116c10.18784,2.99033 17.45855,10.47454 27.74809,13.44212c0.49492,0.12991 0.95186,0.35354 1.35073,0.65077c0.96608,0.6629 2.04073,1.92217 1.47796,4.10518c-0.02481,0.10161 -0.05355,0.20166 -0.08606,0.3c-0.67761,2.14149 -2.25227,2.64102 -3.42072,2.69322c-0.10767,0.00882 -0.21656,0.01331 -0.3265,0.01331h-4.4883v-1.12448l-2.8793,-0.82266l0.07977,-0.27917c-2.66099,-1.04904 -5.21604,-2.29986 -7.81044,-3.89802c-2.89854,-1.7855 -5.71562,-4.97223 -8.81301,-6.33441c-4.40446,-1.93701 -10.27201,-2.82286 -14.98687,-4.06614c-1.87566,-0.49459 -5.49032,-1.19913 -6.8518,-2.74256c-1.13254,-1.2839 -1.8644,-2.87196 -2.79661,-4.30793l-0.89766,-2.24414c0,0 -1.64387,0.25777 0.14825,-3.25753z" fill="#ffffff" stroke="none" stroke-width="0.5"/><path d="M253.34885,147.25709c-1.90852,3.4535 -5.362,1.54499 -5.362,1.54499l-3.44673,0.07571c-10.9567,-5.47836 -22.72376,-10.76781 -31.54593,-19.58999c0,0 -2.79006,-2.79008 0,-5.58016c2.79006,-2.79006 5.58014,0 5.58014,0c8.22181,8.22181 19.2257,12.9771 29.49499,18.11175l3.73455,0.07571c0,0 3.45349,1.9085 1.54499,5.362z" fill="#ffffff" stroke="none" stroke-width="0.5"/><path d="M241.97201,106.60295c1.94154,-3.43504 5.37657,-1.49349 5.37657,-1.49349l1.21507,2.8629c0.55108,0.73476 0.60979,1.82406 1.30096,2.4289c4.20348,3.67844 10.13809,2.45947 14.96543,3.96323c1.4284,0.44496 2.39377,1.79532 3.59064,2.69298c0,0 3.15661,2.36746 0.78915,5.52406c-2.36746,3.15661 -5.52406,0.78915 -5.52406,0.78915c-1.19688,-0.89766 -2.14367,-2.31274 -3.59064,-2.69298c-0.27521,-0.07232 -0.05022,0.71718 -0.32553,0.78915c-0.86848,0.22705 -1.80741,0.14686 -2.69298,0c-6.32843,-1.04951 -11.02966,-3.69754 -14.82619,-8.75959l1.21507,-0.72774c0,0 -3.43504,-1.94154 -1.49349,-5.37657z" fill="#ffffff" stroke="none" stroke-width="0.5"/><path d="M255.40655,96.40668c-1.3271,3.71588 -3.71588,2.61866 -3.71588,2.61866h-2.24414c-3.74704,-0.09514 -6.54373,-0.80085 -9.15724,-2.41864l-0.36528,0.36528l-0.7833,-0.7833l-0.48089,0.36067l-2.66907,-3.55876c-0.18673,-0.24344 -0.34573,-0.50927 -0.47226,-0.79278c-0.52898,-1.07225 -0.84731,-2.73444 0.81488,-4.39663c1.66219,-1.66219 3.3244,-1.34388 4.39663,-0.81488c0.44385,0.19811 0.84439,0.47578 1.18351,0.81488v0l1.26359,1.26359c1.98341,1.94905 2.69404,2.25535 6.26943,2.06901h2.24416c0,0 5.043,1.55698 3.71588,5.27286z" fill="#ffffff" stroke="none" stroke-width="0.5"/><path d="M220.50825,183.66643c2.07687,-3.35494 6.51155,-0.29058 6.51155,-0.29058l1.3465,1.79532c2.20145,3.97431 7.74949,5.57201 12.37836,7.20395l0.14337,-0.28675l3.51419,1.75709c0.4572,0.21673 0.86609,0.51877 1.20612,0.88557c0.82826,0.82842 1.65627,2.26427 0.70208,4.30757c-0.03993,0.08818 -0.083,0.17464 -0.12907,0.25922c-1.01079,1.90861 -2.55595,2.18216 -3.70532,2.06082h-4.25025v-1.68825c-5.95927,-2.62256 -11.69326,-4.34349 -16.17269,-9.76432l-1.3465,-1.79532c0,0 -2.2752,-1.08938 -0.19833,-4.44433z" fill="#ffffff" stroke="none" stroke-width="0.5"/></g></g></svg>