<svg version="1.1" xmlns="http://www.w3.org/2000/svg" xmlns:xlink="http://www.w3.org/1999/xlink" width="109.39553" height="118.35841" viewBox="0,0,109.39553,118.35841"><g transform="translate(-201.87709,-109.6464)"><g data-paper-data="{&quot;isPaintingLayer&quot;:true}" fill="#ffffff" fill-rule="nonzero" stroke="none" stroke-width="0.5" stroke-linecap="butt" stroke-linejoin="miter" stroke-miterlimit="10" stroke-dasharray="" stroke-dashoffset="0" style="mix-blend-mode: normal"><path d="M284.31745,220.74017c0,1.25 -1.25,1.25 -1.25,1.25l-1.67545,-0.02488c-2.61118,1.1382 -4.34268,1.55666 -7.09729,1.93172c-1.41528,0.1927 -2.66253,1.06411 -4.05295,1.39105c-5.86365,1.37879 -12.48451,2.47306 -18.48072,2.47292c-4.92933,-0.00012 -10.27072,0.57754 -15.15902,-0.045c-6.53454,-0.8322 -12.78109,-2.64818 -18.77465,-5.17975c-2.84574,-1.20199 -6.41223,-1.98485 -8.75626,-4.13352c-0.95519,-0.87558 -1.48222,-2.14257 -2.39677,-3.06054c-2.28317,-1.27642 -1.88284,-2.79865 -2.95683,-4.9533c-0.37303,-0.74838 -1.11358,-1.31026 -1.35588,-2.11057c-1.05799,-3.49459 -0.05363,-8.88261 -0.05363,-12.54513c0,-2.74491 -0.16235,-5.38486 2.71808,-6.90502c4.95402,-2.6145 12.4099,-2.03944 17.8329,-2.03944c7.94461,0.00523 15.8278,-1.91697 23.6593,-3.0917c8.62357,-1.29354 17.30059,-2.00081 25.89048,-3.55571c8.64942,-1.56555 16.83578,-1.68826 25.60085,-1.68826c1.66667,0 3.33338,-0.01183 5,0c0.90649,0.00643 2.34571,0.77767 2.7191,-0.04837c0.31836,-0.70431 -0.61402,-2.26093 -0.77458,-2.82892c-0.67273,-2.37977 -0.38969,-3.91495 -1.6524,-6.18807c-1.0042,-2.83634 -1.45287,-6.63575 -3.40605,-8.92675c-5.36121,-6.28848 -12.7884,-8.43526 -20.4769,-10.35793c-5.18017,-1.29541 -10.08397,-2.51963 -15.4753,-2.48899c-5.89836,0.01185 -11.4958,0.87131 -17.35561,1.27686c-4.46202,0.3088 -8.84303,-0.30587 -13.27374,0.61563c-1.6901,0.35151 -2.83306,0.9899 -4.57575,1.29782c-2.07401,0.36646 -4.38062,-0.12477 -6.48056,0.00768c-2.12269,0.13388 -4.31305,0.77172 -6.36419,1.27745c-3.01812,0.01884 -8.12772,0.22303 -9.64324,-3.3271c-0.12053,-0.28234 -0.09515,-3.80956 -0.09515,-4.32558c0,-4.61234 -0.78943,-10.22288 2.15956,-14.1962c1.52093,-2.04922 3.64333,-2.95253 5.64634,-4.33161c2.95496,-2.0345 5.18181,-4.18737 8.61812,-5.48938c5.06943,-1.89304 9.43682,-5.28681 14.37838,-7.43339c10.40556,-4.52011 22.91224,-3.14208 33.92691,-3.14208c7.72558,0 14.53983,2.99632 21.65865,5.75931c6.04401,2.34583 12.21036,4.295 18.01388,7.19676c0,0 1.11803,0.55902 0.55902,1.67705c-0.55902,1.11803 -1.67705,0.55902 -1.67705,0.55902c-5.73209,-2.86604 -11.83008,-4.7851 -17.8004,-7.1022c-6.81577,-2.64523 -13.36219,-5.58993 -20.7541,-5.58993c-10.60803,0 -22.90735,-1.457 -32.92742,2.93359c-4.97751,2.18104 -9.38875,5.55846 -14.50006,7.4827c-3.23834,1.20017 -5.2975,3.28992 -8.07737,5.20713c-1.76732,1.21888 -3.67434,1.94453 -5.03679,3.73482c-2.59873,3.41478 -1.68767,8.76055 -1.68767,12.73442c0,1.12341 -0.46459,2.30795 -0.09515,3.36888c0.77421,2.2233 5.44453,1.79012 7.02809,1.80254c2.08904,-0.53009 4.29748,-1.14647 6.45991,-1.28737c2.03066,-0.13232 4.34344,0.37557 6.34354,0.00768c1.50143,-0.27617 2.90659,-0.95562 4.40112,-1.26701c4.5684,-0.95183 9.06035,-0.34408 13.65688,-0.66678c5.90165,-0.41433 11.54649,-1.26874 17.48883,-1.28068c5.59088,0.00667 10.70642,1.21896 16.08666,2.56363c8.1183,2.02899 16.23034,4.41236 21.78929,11.18064c2.16604,2.63725 2.65227,6.31957 3.77099,9.51212c0.41516,0.77361 0.97917,1.48421 1.24547,2.32082c0.52034,1.63471 1.28749,5.34036 1.21116,7.08819c-0.02834,0.64889 0.19108,1.41122 -0.18669,1.93957c-1.70203,2.38047 -7.36177,1.23404 -9.84572,1.23404c-8.62051,0 -16.65149,0.10878 -25.15555,1.64828c-8.61492,1.55943 -17.31648,2.27076 -25.96493,3.56803c-7.96141,1.19421 -15.95385,3.11431 -24.03015,3.11936c-5.19179,0 -11.81772,-0.48612 -16.64289,1.73805c-1.91572,0.88306 -1.40808,3.06779 -1.40808,4.70641c0,2.5 0,5 0,7.5c0,1.44033 -0.49853,2.95077 -0.05363,4.32067c0.21787,0.67085 0.89271,1.10618 1.20894,1.73666c0.87688,1.74825 0.30927,3.24579 2.17281,4.02357c1.0207,1.01789 1.6823,2.36449 2.73288,3.35152c1.99399,1.87337 5.4635,2.52284 7.91508,3.56094c5.80106,2.45643 11.8095,4.19013 18.13632,5.0098c4.77257,0.61831 10.02511,0.02453 14.8407,0.02464c4.52856,0.00011 8.59316,-1.01351 13.03317,-1.75556c5.56529,-0.93011 10.91856,-1.85703 16.10139,-3.99036l2.17178,-0.02488c0,0 1.25,0 1.25,1.25z"/></g></g></svg>