<svg version="1.1" xmlns="http://www.w3.org/2000/svg" xmlns:xlink="http://www.w3.org/1999/xlink" width="225.20131" height="44.37318" viewBox="0,0,225.20131,44.37318"><g transform="translate(-124.78582,-206.25)"><g data-paper-data="{&quot;isPaintingLayer&quot;:true}" fill="#ffffff" fill-rule="nonzero" stroke="#ffffff" stroke-width="0.5" stroke-linecap="butt" stroke-linejoin="miter" stroke-miterlimit="10" stroke-dasharray="" stroke-dashoffset="0" style="mix-blend-mode: normal"><path d="M141.5,249l-16,-14c0,0 24.15217,1.42962 51.80837,3.52691c21.51877,1.63186 45.15891,4.06252 61.19394,3.99094c18.79061,-0.08388 46.1618,-3.17022 69.02151,-5.25681c23.33951,-2.13039 41.97618,-3.26104 41.97618,-3.26104l-10,15c0,0 -20.96735,0 -38,0c-12.94401,0 -38.24635,1.5768 -64.97763,1.35107c-18.53284,-0.1565 -37.75252,-2.21809 -54.01686,-1.97792c-23.61896,0.34877 -41.00551,0.62685 -41.00551,0.62685z"/><path d="M241,225c0,11.32184 -0.44772,20.5 -1,20.5c-0.55228,0 -1,-9.17816 -1,-20.5c0,-11.32184 0.44772,-18.5 1,-18.5c0.55228,0 1,7.17816 1,18.5z"/><path d="M243,236c0,7.45584 -5.8203,13.5 -13,13.5c-2.88357,0 -7.01835,-5.1818 -10.93416,-11.3831c-5.83406,-9.23913 -11.18209,-20.74126 -11.18209,-20.74126c0,0 14.14441,2.13464 24.54003,7.76507c4.93619,2.67352 10.57622,8.45882 10.57622,10.85929z"/><path d="M249,249.5c-7.73199,0 -14,-6.04415 -14,-13.5c0,-3.3177 7.26803,-9.16235 15.33583,-12.40806c10.06293,-4.04835 21.37012,-5.16491 21.37012,-5.16491c0,0 -4.34845,9.02363 -9.56871,17.34541c-4.46682,7.12071 -9.57194,13.72756 -13.13724,13.72756z"/></g></g></svg>